# xmcd
#
# Track frame offsets:
#	150
#	15588
#	37441
#	60127
#	84355
#	99314
#	113502
#	144241
#	163415
#	179197
#	203687
#	226706
#	244022
#	262790
#	283842
#	308080
#
# Disc length: 4342 seconds
#
# Revision: 0
# Processed by: cddbd v1.5PL3 Copyright (c) Steve Scherf et al.
# Submitted via: dBpowerAMP V4.0
#
DISCID=cd10f410
DTITLE=nightTrain - live at the Galery
DYEAR=2004
DGENRE=Blues: Soul-Blues, Modern Electric Blues
TTITLE0=Wake Up Call
TTITLE1=Don't Leave Home Without It
TTITLE2=Givin' It Up For Your Love
TTITLE3=Blues From The Delta
TTITLE4=Goin' Back To Louisiana
TTITLE5=She Caught The Katy
TTITLE6=Wee Wee Hours
TTITLE7=I Got A Woman
TTITLE8=Take Me To The River
TTITLE9=Sleepless Night
TTITLE10=Shake Bully
TTITLE11=I Don't Wanna Hear It 
TTITLE12=Tulsa Time
TTITLE13=In The Midnight Hour
TTITLE14=Eyesight To The Blind
TTITLE15=Spezial Love Song
EXTD=liverecorded at the Galery, Pratteln, Switzerland in June 2003
EXTT0=
EXTT1=
EXTT2=
EXTT3=
EXTT4=
EXTT5=
EXTT6=
EXTT7=
EXTT8=
EXTT9=
EXTT10=
EXTT11=
EXTT12=
EXTT13=
EXTT14=
EXTT15=
PLAYORDER=
